<svg width="25" height="26" viewBox="0 0 25 26" fill="none" xmlns="http://www.w3.org/2000/svg">
<g clip-path="url(#clip0_25_119)">
<path d="M17.5445 0.5H7.45551C3.36177 0.5 0.03125 3.83047 0.03125 7.92427V18.0758C0.03125 22.1695 3.36177 25.5 7.45551 25.5H17.5445C21.6382 25.5 24.9687 22.1695 24.9687 18.0758V7.92427C24.9687 3.83047 21.6382 0.5 17.5445 0.5ZM23.9727 18.0757C23.9727 21.6203 21.0891 24.504 17.5445 24.504H7.45551C3.91094 24.504 1.02729 21.6203 1.02729 18.0758V7.92427C1.02729 4.37969 3.91094 1.49604 7.45551 1.49604H17.5445C21.0891 1.49604 23.9727 4.37969 23.9727 7.92427V18.0757Z" fill="white"/>
<path d="M17.5446 3.34644H7.45561C4.9313 3.34644 2.87769 5.4 2.87769 7.92432V18.0759C2.87769 20.6001 4.9313 22.6538 7.45561 22.6538H17.5446C20.0689 22.6538 22.1225 20.6001 22.1225 18.0759V7.92432C22.1225 5.40005 20.0689 3.34644 17.5446 3.34644ZM21.1265 18.0758C21.1265 20.0508 19.5197 21.6577 17.5446 21.6577H7.45561C5.48052 21.6577 3.87368 20.0508 3.87368 18.0758V7.92427C3.87368 5.94922 5.48052 4.34238 7.45561 4.34238V4.34243H17.5446C19.5197 4.34243 21.1265 5.94927 21.1265 7.92432V18.0758Z" fill="white"/>
<path d="M12.5 6.56348C8.95092 6.56348 6.06348 9.45093 6.06348 13.0001C6.06348 16.5493 8.95088 19.4367 12.5 19.4367C16.0492 19.4367 18.9366 16.5493 18.9366 13.0001C18.9366 9.45093 16.0492 6.56348 12.5 6.56348ZM12.5 18.4406C9.50014 18.4406 7.05952 16 7.05952 13.0001C7.05952 10.0001 9.50014 7.55952 12.5 7.55952C15.5 7.55952 17.9406 10.0001 17.9406 13.0001C17.9406 16 15.4999 18.4406 12.5 18.4406Z" fill="white"/>
<path d="M12.5 9.34009C10.4818 9.34009 8.83984 10.982 8.83984 13.0002C8.83984 15.0184 10.4818 16.6603 12.5 16.6603C14.5182 16.6603 16.1601 15.0184 16.1601 13.0002C16.1601 10.982 14.5181 9.34009 12.5 9.34009ZM12.5 15.6643C11.031 15.6643 9.83584 14.4692 9.83584 13.0002C9.83584 11.5312 11.031 10.3361 12.5 10.3361C13.9689 10.3361 15.1641 11.5312 15.1641 13.0002C15.1641 14.4692 13.9689 15.6643 12.5 15.6643Z" fill="white"/>
<path d="M18.5783 5.37524C17.7255 5.37524 17.0317 6.06899 17.0317 6.92178C17.0317 7.77456 17.7255 8.46826 18.5783 8.46826C19.431 8.46826 20.1248 7.77456 20.1248 6.92178C20.1248 6.06899 19.431 5.37524 18.5783 5.37524ZM18.5783 7.47222C18.2748 7.47222 18.0278 7.22529 18.0278 6.92178C18.0278 6.61821 18.2748 6.37129 18.5783 6.37129C18.8818 6.37129 19.1287 6.61826 19.1287 6.92178C19.1288 7.22529 18.8818 7.47222 18.5783 7.47222Z" fill="white"/>
<path d="M11.7032 23.1096H7.02192C6.74688 23.1096 6.52393 23.3326 6.52393 23.6076C6.52393 23.8827 6.74688 24.1056 7.02192 24.1056H11.7032C11.9782 24.1056 12.2012 23.8827 12.2012 23.6076C12.2012 23.3326 11.9782 23.1096 11.7032 23.1096Z" fill="white"/>
<path d="M13.5957 23.1096H13.2968C13.0218 23.1096 12.7988 23.3326 12.7988 23.6076C12.7988 23.8827 13.0218 24.1056 13.2968 24.1056H13.5957C13.8707 24.1056 14.0937 23.8827 14.0937 23.6076C14.0937 23.3326 13.8707 23.1096 13.5957 23.1096Z" fill="white"/>
</g>
<defs>
<clipPath id="clip0_25_119">
<rect width="25" height="25" fill="white" transform="translate(0 0.5)"/>
</clipPath>
</defs>
</svg>
