<svg width="25" height="26" viewBox="0 0 25 26" fill="none" xmlns="http://www.w3.org/2000/svg">
<g clip-path="url(#clip0_25_145)">
<path d="M12.5001 0.5C6.91762 0.5 2.37598 5.04165 2.37598 10.6241C2.37598 12.9276 3.13086 15.097 4.55905 16.8978C6.40829 19.2294 11.7859 24.7654 12.0139 24.9999L12.5001 25.5L12.9863 25C13.2144 24.7653 18.5936 19.2281 20.4432 16.8957C21.8701 15.0964 22.6243 12.9278 22.6243 10.6241C22.6243 5.04165 18.0826 0.5 12.5001 0.5ZM19.3805 16.053C17.8916 17.9305 13.8931 22.1072 12.5001 23.5518C11.1073 22.1072 7.11021 17.9318 5.62167 16.055C4.38559 14.4964 3.73222 12.6185 3.73222 10.6241C3.73222 5.78948 7.66546 1.85624 12.5001 1.85624C17.3347 1.85624 21.268 5.78948 21.268 10.6241C21.268 12.6186 20.6153 14.4959 19.3805 16.053Z" fill="white"/>
<path d="M12.5001 4.5188C9.19566 4.5188 6.50732 7.20714 6.50732 10.5116C6.50732 13.8161 9.19573 16.5044 12.5001 16.5044C15.8046 16.5044 18.493 13.816 18.493 10.5116C18.493 7.20721 15.8046 4.5188 12.5001 4.5188ZM12.5001 15.1482C9.9435 15.1482 7.86357 13.0682 7.86357 10.5116C7.86357 7.95497 9.94356 5.87504 12.5001 5.87504C15.0567 5.87504 17.1367 7.95504 17.1367 10.5116C17.1367 13.0683 15.0568 15.1482 12.5001 15.1482Z" fill="white"/>
</g>
<defs>
<clipPath id="clip0_25_145">
<rect width="25" height="25" fill="white" transform="translate(0 0.5)"/>
</clipPath>
</defs>
</svg>
