<svg width="144" height="48" viewBox="0 0 144 48" fill="none" xmlns="http://www.w3.org/2000/svg">
<path d="M4.96887 29V8H12.4989C14.2589 8 15.7689 8.28 17.0289 8.84C18.2889 9.4 19.2589 10.21 19.9389 11.27C20.6189 12.31 20.9589 13.58 20.9589 15.08C20.9589 16.54 20.6189 17.8 19.9389 18.86C19.2589 19.92 18.2889 20.73 17.0289 21.29C15.7689 21.85 14.2589 22.13 12.4989 22.13H5.80887L6.49887 21.41V29H4.96887ZM6.49887 21.5L5.80887 20.75H12.4989C14.7589 20.75 16.4689 20.26 17.6289 19.28C18.8089 18.28 19.3989 16.88 19.3989 15.08C19.3989 13.26 18.8089 11.86 17.6289 10.88C16.4689 9.88 14.7589 9.38 12.4989 9.38H5.80887L6.49887 8.63V21.5ZM29.1212 29V8H36.6512C38.4112 8 39.9212 8.28 41.1812 8.84C42.4412 9.4 43.4112 10.21 44.0912 11.27C44.7712 12.31 45.1112 13.58 45.1112 15.08C45.1112 16.54 44.7712 17.8 44.0912 18.86C43.4112 19.9 42.4412 20.71 41.1812 21.29C39.9212 21.85 38.4112 22.13 36.6512 22.13H29.9612L30.6512 21.41V29H29.1212ZM43.7012 29L38.2412 21.38H39.9812L45.4412 29H43.7012ZM30.6512 21.5L29.9612 20.78H36.6512C38.9112 20.78 40.6212 20.28 41.7812 19.28C42.9612 18.28 43.5512 16.88 43.5512 15.08C43.5512 13.26 42.9612 11.86 41.7812 10.88C40.6212 9.88 38.9112 9.38 36.6512 9.38H29.9612L30.6512 8.63V21.5ZM53.713 29V8H55.243V29H53.713ZM63.3107 29V27.92L78.2807 8.78L78.4307 9.38H63.4907V8H79.9007V9.08L64.9607 28.22L64.7807 27.62H80.2307V29H63.3107ZM87.9552 29V8H89.2452L98.9952 24.83H98.3052L108.025 8H109.285L109.315 29H107.815L107.785 10.31H108.205L98.9952 26.21H98.2452L89.0052 10.31H89.4552V29H87.9552Z" fill="black"/>
<path d="M114.751 28.1988L126.228 7.42859L140 33.7143H4" stroke="#2AEC57" stroke-width="1.3"/>
<path d="M3.98875 46V39H6.75875C7.49875 39 8.14875 39.15 8.70875 39.45C9.26875 39.75 9.70209 40.1633 10.0088 40.69C10.3221 41.2167 10.4788 41.82 10.4788 42.5C10.4788 43.18 10.3221 43.7833 10.0088 44.31C9.70209 44.8367 9.26875 45.25 8.70875 45.55C8.14875 45.85 7.49875 46 6.75875 46H3.98875ZM4.49875 45.54H6.71875C7.37875 45.54 7.95209 45.41 8.43875 45.15C8.92542 44.89 9.30209 44.5333 9.56875 44.08C9.83542 43.62 9.96875 43.0933 9.96875 42.5C9.96875 41.9067 9.83542 41.3833 9.56875 40.93C9.30209 40.47 8.92542 40.11 8.43875 39.85C7.95209 39.59 7.37875 39.46 6.71875 39.46H4.49875V45.54ZM11.4905 46V40.78H11.9905V46H11.4905ZM11.7405 39.51C11.6271 39.51 11.5305 39.47 11.4505 39.39C11.3705 39.31 11.3305 39.2167 11.3305 39.11C11.3305 38.9967 11.3705 38.9 11.4505 38.82C11.5305 38.74 11.6271 38.7 11.7405 38.7C11.8605 38.7 11.9571 38.74 12.0305 38.82C12.1105 38.8933 12.1505 38.9867 12.1505 39.1C12.1505 39.2133 12.1105 39.31 12.0305 39.39C11.9571 39.47 11.8605 39.51 11.7405 39.51ZM14.8179 46.04C14.3846 46.04 13.9779 45.9767 13.5979 45.85C13.2246 45.7233 12.9346 45.5633 12.7279 45.37L12.9579 44.97C13.1579 45.1433 13.4246 45.2933 13.7579 45.42C14.0912 45.54 14.4512 45.6 14.8379 45.6C15.3846 45.6 15.7779 45.51 16.0179 45.33C16.2579 45.15 16.3779 44.9133 16.3779 44.62C16.3779 44.4067 16.3146 44.24 16.1879 44.12C16.0679 43.9933 15.9046 43.8967 15.6979 43.83C15.4912 43.7633 15.2646 43.71 15.0179 43.67C14.7712 43.6233 14.5246 43.5733 14.2779 43.52C14.0312 43.4667 13.8046 43.39 13.5979 43.29C13.3912 43.19 13.2246 43.0533 13.0979 42.88C12.9779 42.7 12.9179 42.4633 12.9179 42.17C12.9179 41.9033 12.9912 41.6633 13.1379 41.45C13.2846 41.2367 13.5046 41.0667 13.7979 40.94C14.0912 40.8067 14.4579 40.74 14.8979 40.74C15.2246 40.74 15.5512 40.7867 15.8779 40.88C16.2112 40.9733 16.4812 41.0967 16.6879 41.25L16.4579 41.65C16.2379 41.4833 15.9912 41.3633 15.7179 41.29C15.4446 41.2167 15.1679 41.18 14.8879 41.18C14.3812 41.18 14.0079 41.2733 13.7679 41.46C13.5346 41.6467 13.4179 41.88 13.4179 42.16C13.4179 42.38 13.4779 42.5567 13.5979 42.69C13.7246 42.8167 13.8912 42.9167 14.0979 42.99C14.3046 43.0567 14.5312 43.1133 14.7779 43.16C15.0246 43.2 15.2712 43.2467 15.5179 43.3C15.7646 43.3533 15.9912 43.43 16.1979 43.53C16.4046 43.6233 16.5679 43.7567 16.6879 43.93C16.8146 44.0967 16.8779 44.3233 16.8779 44.61C16.8779 44.8967 16.7979 45.1467 16.6379 45.36C16.4846 45.5733 16.2546 45.74 15.9479 45.86C15.6412 45.98 15.2646 46.04 14.8179 46.04ZM19.1933 46.04C18.7333 46.04 18.38 45.9133 18.1333 45.66C17.8933 45.4067 17.7733 45.06 17.7733 44.62V39.64H18.2733V44.57C18.2733 44.9033 18.3566 45.16 18.5233 45.34C18.69 45.52 18.93 45.61 19.2433 45.61C19.57 45.61 19.84 45.5133 20.0533 45.32L20.2633 45.67C20.13 45.7967 19.9666 45.89 19.7733 45.95C19.5866 46.01 19.3933 46.04 19.1933 46.04ZM16.8133 41.21V40.78H19.9333V41.21H16.8133ZM21.0577 46V40.78H21.5377V42.21L21.4877 42.05C21.6343 41.63 21.881 41.3067 22.2277 41.08C22.5743 40.8533 23.0077 40.74 23.5277 40.74V41.23C23.5077 41.23 23.4877 41.23 23.4677 41.23C23.4477 41.2233 23.4277 41.22 23.4077 41.22C22.8277 41.22 22.3743 41.4033 22.0477 41.77C21.721 42.13 21.5577 42.6333 21.5577 43.28V46H21.0577ZM26.5132 46.04C26.0665 46.04 25.6799 45.96 25.3532 45.8C25.0265 45.6333 24.7732 45.3867 24.5932 45.06C24.4199 44.7267 24.3332 44.3167 24.3332 43.83V40.78H24.8332V43.79C24.8332 44.3767 24.9832 44.8233 25.2832 45.13C25.5832 45.4367 26.0065 45.59 26.5532 45.59C26.9465 45.59 27.2865 45.5067 27.5732 45.34C27.8599 45.1733 28.0799 44.94 28.2332 44.64C28.3865 44.3333 28.4632 43.9733 28.4632 43.56V40.78H28.9632V46H28.4832V44.55L28.5532 44.72C28.3999 45.1267 28.1432 45.45 27.7832 45.69C27.4299 45.9233 27.0065 46.04 26.5132 46.04ZM33.1027 46.04C32.6427 46.04 32.226 45.9333 31.8527 45.72C31.486 45.5067 31.1927 45.2 30.9727 44.8C30.7593 44.4 30.6527 43.93 30.6527 43.39C30.6527 42.8367 30.7593 42.3633 30.9727 41.97C31.1927 41.5767 31.486 41.2733 31.8527 41.06C32.226 40.8467 32.6427 40.74 33.1027 40.74C33.596 40.74 34.036 40.8533 34.4227 41.08C34.816 41.3 35.1227 41.61 35.3427 42.01C35.5693 42.4033 35.6827 42.8633 35.6827 43.39C35.6827 43.91 35.5693 44.37 35.3427 44.77C35.1227 45.17 34.816 45.4833 34.4227 45.71C34.036 45.93 33.596 46.04 33.1027 46.04ZM30.4827 46V38.58H30.9827V42.47L30.8827 43.38L30.9627 44.29V46H30.4827ZM33.0727 45.59C33.4727 45.59 33.8327 45.5 34.1527 45.32C34.4727 45.1333 34.7227 44.8733 34.9027 44.54C35.0893 44.2067 35.1827 43.8233 35.1827 43.39C35.1827 42.95 35.0893 42.5667 34.9027 42.24C34.7227 41.9067 34.4727 41.65 34.1527 41.47C33.8327 41.2833 33.4727 41.19 33.0727 41.19C32.6727 41.19 32.3127 41.2833 31.9927 41.47C31.6793 41.65 31.4293 41.9067 31.2427 42.24C31.0627 42.5667 30.9727 42.95 30.9727 43.39C30.9727 43.8233 31.0627 44.2067 31.2427 44.54C31.4293 44.8733 31.6793 45.1333 31.9927 45.32C32.3127 45.5 32.6727 45.59 33.0727 45.59ZM38.7507 46.04C38.304 46.04 37.9174 45.96 37.5907 45.8C37.264 45.6333 37.0107 45.3867 36.8307 45.06C36.6574 44.7267 36.5707 44.3167 36.5707 43.83V40.78H37.0707V43.79C37.0707 44.3767 37.2207 44.8233 37.5207 45.13C37.8207 45.4367 38.244 45.59 38.7907 45.59C39.184 45.59 39.524 45.5067 39.8107 45.34C40.0974 45.1733 40.3174 44.94 40.4707 44.64C40.624 44.3333 40.7007 43.9733 40.7007 43.56V40.78H41.2007V46H40.7207V44.55L40.7907 44.72C40.6374 45.1267 40.3807 45.45 40.0207 45.69C39.6674 45.9233 39.244 46.04 38.7507 46.04ZM44.7902 46.04C44.2835 46.04 43.8302 45.9267 43.4302 45.7C43.0368 45.4733 42.7235 45.16 42.4902 44.76C42.2635 44.36 42.1502 43.9033 42.1502 43.39C42.1502 42.87 42.2635 42.41 42.4902 42.01C42.7235 41.61 43.0368 41.3 43.4302 41.08C43.8302 40.8533 44.2835 40.74 44.7902 40.74C45.2102 40.74 45.5902 40.82 45.9302 40.98C46.2768 41.14 46.5568 41.38 46.7702 41.7L46.4002 41.97C46.2135 41.7033 45.9802 41.5067 45.7002 41.38C45.4202 41.2533 45.1168 41.19 44.7902 41.19C44.3835 41.19 44.0168 41.2833 43.6902 41.47C43.3702 41.65 43.1168 41.9067 42.9302 42.24C42.7502 42.5667 42.6602 42.95 42.6602 43.39C42.6602 43.83 42.7502 44.2167 42.9302 44.55C43.1168 44.8767 43.3702 45.1333 43.6902 45.32C44.0168 45.5 44.3835 45.59 44.7902 45.59C45.1168 45.59 45.4202 45.5267 45.7002 45.4C45.9802 45.2733 46.2135 45.0767 46.4002 44.81L46.7702 45.08C46.5568 45.4 46.2768 45.64 45.9302 45.8C45.5902 45.96 45.2102 46.04 44.7902 46.04ZM47.5791 46V40.78H48.0791V46H47.5791ZM47.8291 39.51C47.7158 39.51 47.6191 39.47 47.5391 39.39C47.4591 39.31 47.4191 39.2167 47.4191 39.11C47.4191 38.9967 47.4591 38.9 47.5391 38.82C47.6191 38.74 47.7158 38.7 47.8291 38.7C47.9491 38.7 48.0458 38.74 48.1191 38.82C48.1991 38.8933 48.2391 38.9867 48.2391 39.1C48.2391 39.2133 48.1991 39.31 48.1191 39.39C48.0458 39.47 47.9491 39.51 47.8291 39.51ZM48.7266 47.98C48.5199 47.98 48.3199 47.95 48.1266 47.89C47.9332 47.8367 47.7732 47.75 47.6466 47.63L47.8466 47.26C48.0666 47.4533 48.3499 47.55 48.6966 47.55C48.9966 47.55 49.2266 47.46 49.3866 47.28C49.5532 47.1 49.6366 46.84 49.6366 46.5V40.78H50.1366V46.52C50.1366 46.96 50.0132 47.3133 49.7666 47.58C49.5266 47.8467 49.1799 47.98 48.7266 47.98ZM49.8866 39.51C49.7732 39.51 49.6766 39.47 49.5966 39.39C49.5166 39.31 49.4766 39.2167 49.4766 39.11C49.4766 38.9967 49.5166 38.9 49.5966 38.82C49.6766 38.74 49.7732 38.7 49.8866 38.7C50.0066 38.7 50.1032 38.74 50.1766 38.82C50.2566 38.8933 50.2966 38.9867 50.2966 39.1C50.2966 39.2133 50.2566 39.31 50.1766 39.39C50.1032 39.47 50.0066 39.51 49.8866 39.51ZM54.9328 46V44.81L54.9128 44.63V42.67C54.9128 42.1833 54.7795 41.8133 54.5128 41.56C54.2528 41.3067 53.8695 41.18 53.3628 41.18C53.0028 41.18 52.6662 41.2433 52.3528 41.37C52.0462 41.49 51.7828 41.6467 51.5628 41.84L51.3128 41.48C51.5728 41.2467 51.8862 41.0667 52.2528 40.94C52.6195 40.8067 53.0028 40.74 53.4028 40.74C54.0495 40.74 54.5462 40.9033 54.8928 41.23C55.2395 41.5567 55.4128 42.0433 55.4128 42.69V46H54.9328ZM53.0528 46.04C52.6662 46.04 52.3295 45.98 52.0428 45.86C51.7628 45.7333 51.5462 45.5567 51.3928 45.33C51.2462 45.1033 51.1728 44.8433 51.1728 44.55C51.1728 44.2833 51.2328 44.0433 51.3528 43.83C51.4795 43.61 51.6862 43.4333 51.9728 43.3C52.2595 43.16 52.6428 43.09 53.1228 43.09H55.0428V43.48H53.1328C52.5928 43.48 52.2128 43.58 51.9928 43.78C51.7795 43.98 51.6728 44.23 51.6728 44.53C51.6728 44.8633 51.7995 45.13 52.0528 45.33C52.3062 45.53 52.6628 45.63 53.1228 45.63C53.5628 45.63 53.9328 45.53 54.2328 45.33C54.5395 45.13 54.7662 44.84 54.9128 44.46L55.0528 44.8C54.9128 45.18 54.6728 45.4833 54.3328 45.71C53.9995 45.93 53.5728 46.04 53.0528 46.04ZM58.8413 46V40.78H59.3213V42.21L59.2713 42.05C59.4179 41.63 59.6646 41.3067 60.0113 41.08C60.3579 40.8533 60.7913 40.74 61.3113 40.74V41.23C61.2913 41.23 61.2713 41.23 61.2513 41.23C61.2313 41.2233 61.2113 41.22 61.1913 41.22C60.6113 41.22 60.1579 41.4033 59.8313 41.77C59.5046 42.13 59.3413 42.6333 59.3413 43.28V46H58.8413ZM64.1601 46.04C63.6334 46.04 63.1667 45.9267 62.7601 45.7C62.3601 45.4733 62.0434 45.16 61.8101 44.76C61.5834 44.36 61.4701 43.9033 61.4701 43.39C61.4701 42.87 61.5767 42.4133 61.7901 42.02C62.0101 41.62 62.3101 41.3067 62.6901 41.08C63.0701 40.8533 63.4967 40.74 63.9701 40.74C64.4434 40.74 64.8667 40.85 65.2401 41.07C65.6201 41.29 65.9167 41.6 66.1301 42C66.3501 42.3933 66.4601 42.85 66.4601 43.37C66.4601 43.39 66.4567 43.4133 66.4501 43.44C66.4501 43.46 66.4501 43.4833 66.4501 43.51H61.8401V43.12H66.1801L65.9801 43.31C65.9867 42.9033 65.9001 42.54 65.7201 42.22C65.5467 41.8933 65.3101 41.64 65.0101 41.46C64.7101 41.2733 64.3634 41.18 63.9701 41.18C63.5834 41.18 63.2367 41.2733 62.9301 41.46C62.6301 41.64 62.3934 41.8933 62.2201 42.22C62.0467 42.54 61.9601 42.9067 61.9601 43.32V43.41C61.9601 43.8367 62.0534 44.2167 62.2401 44.55C62.4334 44.8767 62.6967 45.1333 63.0301 45.32C63.3634 45.5 63.7434 45.59 64.1701 45.59C64.5034 45.59 64.8134 45.53 65.1001 45.41C65.3934 45.29 65.6401 45.1067 65.8401 44.86L66.1301 45.19C65.9034 45.47 65.6167 45.6833 65.2701 45.83C64.9301 45.97 64.5601 46.04 64.1601 46.04ZM67.7869 44.56L67.7969 43.93L71.2469 40.78H71.8869L69.5969 42.93L69.2969 43.18L67.7869 44.56ZM67.4069 46V38.58H67.9069V46H67.4069ZM71.4869 46L69.2069 43.14L69.5469 42.77L72.1069 46H71.4869ZM72.6858 46V38.58H73.1858V46H72.6858ZM77.9832 46V44.81L77.9632 44.63V42.67C77.9632 42.1833 77.8299 41.8133 77.5632 41.56C77.3032 41.3067 76.9199 41.18 76.4132 41.18C76.0532 41.18 75.7165 41.2433 75.4032 41.37C75.0965 41.49 74.8332 41.6467 74.6132 41.84L74.3632 41.48C74.6232 41.2467 74.9365 41.0667 75.3032 40.94C75.6699 40.8067 76.0532 40.74 76.4532 40.74C77.0999 40.74 77.5965 40.9033 77.9432 41.23C78.2899 41.5567 78.4632 42.0433 78.4632 42.69V46H77.9832ZM76.1032 46.04C75.7165 46.04 75.3799 45.98 75.0932 45.86C74.8132 45.7333 74.5965 45.5567 74.4432 45.33C74.2965 45.1033 74.2232 44.8433 74.2232 44.55C74.2232 44.2833 74.2832 44.0433 74.4032 43.83C74.5299 43.61 74.7365 43.4333 75.0232 43.3C75.3099 43.16 75.6932 43.09 76.1732 43.09H78.0932V43.48H76.1832C75.6432 43.48 75.2632 43.58 75.0432 43.78C74.8299 43.98 74.7232 44.23 74.7232 44.53C74.7232 44.8633 74.8499 45.13 75.1032 45.33C75.3565 45.53 75.7132 45.63 76.1732 45.63C76.6132 45.63 76.9832 45.53 77.2832 45.33C77.5899 45.13 77.8165 44.84 77.9632 44.46L78.1032 44.8C77.9632 45.18 77.7232 45.4833 77.3832 45.71C77.0499 45.93 76.6232 46.04 76.1032 46.04ZM86.4233 40.74C86.8433 40.74 87.2066 40.8233 87.5133 40.99C87.8266 41.15 88.0699 41.3967 88.2433 41.73C88.4166 42.0567 88.5033 42.4633 88.5033 42.95V46H88.0033V42.99C88.0033 42.4033 87.8599 41.9567 87.5733 41.65C87.2866 41.3433 86.8866 41.19 86.3733 41.19C85.9799 41.19 85.6399 41.2733 85.3533 41.44C85.0666 41.6067 84.8466 41.84 84.6933 42.14C84.5399 42.44 84.4633 42.8 84.4633 43.22V46H83.9633V42.99C83.9633 42.4033 83.8199 41.9567 83.5333 41.65C83.2466 41.3433 82.8466 41.19 82.3333 41.19C81.9399 41.19 81.5999 41.2733 81.3133 41.44C81.0266 41.6067 80.8066 41.84 80.6533 42.14C80.4999 42.44 80.4233 42.8 80.4233 43.22V46H79.9233V40.78H80.4033V42.22L80.3333 42.06C80.4866 41.6533 80.7433 41.3333 81.1033 41.1C81.4633 40.86 81.8966 40.74 82.4033 40.74C82.9233 40.74 83.3599 40.8733 83.7133 41.14C84.0733 41.4 84.2999 41.79 84.3933 42.31L84.2233 42.24C84.3633 41.7933 84.6266 41.4333 85.0133 41.16C85.3999 40.88 85.8699 40.74 86.4233 40.74ZM89.9678 46V40.78H90.4678V46H89.9678ZM90.2178 39.51C90.1045 39.51 90.0078 39.47 89.9278 39.39C89.8478 39.31 89.8078 39.2167 89.8078 39.11C89.8078 38.9967 89.8478 38.9 89.9278 38.82C90.0078 38.74 90.1045 38.7 90.2178 38.7C90.3378 38.7 90.4345 38.74 90.5078 38.82C90.5878 38.8933 90.6278 38.9867 90.6278 39.1C90.6278 39.2133 90.5878 39.31 90.5078 39.39C90.4345 39.47 90.3378 39.51 90.2178 39.51ZM94.5252 40.74C94.9519 40.74 95.3219 40.8233 95.6352 40.99C95.9552 41.15 96.2019 41.3967 96.3752 41.73C96.5552 42.0567 96.6452 42.4633 96.6452 42.95V46H96.1452V42.99C96.1452 42.4033 95.9952 41.9567 95.6952 41.65C95.4019 41.3433 94.9886 41.19 94.4552 41.19C94.0486 41.19 93.6952 41.2733 93.3952 41.44C93.0952 41.6067 92.8652 41.84 92.7052 42.14C92.5519 42.44 92.4752 42.8 92.4752 43.22V46H91.9752V38.58H92.4752V42.23L92.3852 42.07C92.5452 41.6567 92.8086 41.3333 93.1752 41.1C93.5419 40.86 93.9919 40.74 94.5252 40.74ZM106.572 40.74C106.992 40.74 107.355 40.8233 107.662 40.99C107.975 41.15 108.219 41.3967 108.392 41.73C108.565 42.0567 108.652 42.4633 108.652 42.95V46H108.152V42.99C108.152 42.4033 108.009 41.9567 107.722 41.65C107.435 41.3433 107.035 41.19 106.522 41.19C106.129 41.19 105.789 41.2733 105.502 41.44C105.215 41.6067 104.995 41.84 104.842 42.14C104.689 42.44 104.612 42.8 104.612 43.22V46H104.112V42.99C104.112 42.4033 103.969 41.9567 103.682 41.65C103.395 41.3433 102.995 41.19 102.482 41.19C102.089 41.19 101.749 41.2733 101.462 41.44C101.175 41.6067 100.955 41.84 100.802 42.14C100.649 42.44 100.572 42.8 100.572 43.22V46H100.072V40.78H100.552V42.22L100.482 42.06C100.635 41.6533 100.892 41.3333 101.252 41.1C101.612 40.86 102.045 40.74 102.552 40.74C103.072 40.74 103.509 40.8733 103.862 41.14C104.222 41.4 104.449 41.79 104.542 42.31L104.372 42.24C104.512 41.7933 104.775 41.4333 105.162 41.16C105.549 40.88 106.019 40.74 106.572 40.74ZM113.407 46V44.81L113.387 44.63V42.67C113.387 42.1833 113.253 41.8133 112.987 41.56C112.727 41.3067 112.343 41.18 111.837 41.18C111.477 41.18 111.14 41.2433 110.827 41.37C110.52 41.49 110.257 41.6467 110.037 41.84L109.787 41.48C110.047 41.2467 110.36 41.0667 110.727 40.94C111.093 40.8067 111.477 40.74 111.877 40.74C112.523 40.74 113.02 40.9033 113.367 41.23C113.713 41.5567 113.887 42.0433 113.887 42.69V46H113.407ZM111.527 46.04C111.14 46.04 110.803 45.98 110.517 45.86C110.237 45.7333 110.02 45.5567 109.867 45.33C109.72 45.1033 109.647 44.8433 109.647 44.55C109.647 44.2833 109.707 44.0433 109.827 43.83C109.953 43.61 110.16 43.4333 110.447 43.3C110.733 43.16 111.117 43.09 111.597 43.09H113.517V43.48H111.607C111.067 43.48 110.687 43.58 110.467 43.78C110.253 43.98 110.147 44.23 110.147 44.53C110.147 44.8633 110.273 45.13 110.527 45.33C110.78 45.53 111.137 45.63 111.597 45.63C112.037 45.63 112.407 45.53 112.707 45.33C113.013 45.13 113.24 44.84 113.387 44.46L113.527 44.8C113.387 45.18 113.147 45.4833 112.807 45.71C112.473 45.93 112.047 46.04 111.527 46.04ZM116.867 46.04C116.407 46.04 116.053 45.9133 115.807 45.66C115.567 45.4067 115.447 45.06 115.447 44.62V39.64H115.947V44.57C115.947 44.9033 116.03 45.16 116.197 45.34C116.363 45.52 116.603 45.61 116.917 45.61C117.243 45.61 117.513 45.5133 117.727 45.32L117.937 45.67C117.803 45.7967 117.64 45.89 117.447 45.95C117.26 46.01 117.067 46.04 116.867 46.04ZM114.487 41.21V40.78H117.607V41.21H114.487ZM120.666 46.04C120.139 46.04 119.672 45.9267 119.266 45.7C118.866 45.4733 118.549 45.16 118.316 44.76C118.089 44.36 117.976 43.9033 117.976 43.39C117.976 42.87 118.082 42.4133 118.296 42.02C118.516 41.62 118.816 41.3067 119.196 41.08C119.576 40.8533 120.002 40.74 120.476 40.74C120.949 40.74 121.372 40.85 121.746 41.07C122.126 41.29 122.422 41.6 122.636 42C122.856 42.3933 122.966 42.85 122.966 43.37C122.966 43.39 122.962 43.4133 122.956 43.44C122.956 43.46 122.956 43.4833 122.956 43.51H118.346V43.12H122.686L122.486 43.31C122.492 42.9033 122.406 42.54 122.226 42.22C122.052 41.8933 121.816 41.64 121.516 41.46C121.216 41.2733 120.869 41.18 120.476 41.18C120.089 41.18 119.742 41.2733 119.436 41.46C119.136 41.64 118.899 41.8933 118.726 42.22C118.552 42.54 118.466 42.9067 118.466 43.32V43.41C118.466 43.8367 118.559 44.2167 118.746 44.55C118.939 44.8767 119.202 45.1333 119.536 45.32C119.869 45.5 120.249 45.59 120.676 45.59C121.009 45.59 121.319 45.53 121.606 45.41C121.899 45.29 122.146 45.1067 122.346 44.86L122.636 45.19C122.409 45.47 122.122 45.6833 121.776 45.83C121.436 45.97 121.066 46.04 120.666 46.04ZM123.912 46V40.78H124.392V42.21L124.342 42.05C124.489 41.63 124.736 41.3067 125.082 41.08C125.429 40.8533 125.862 40.74 126.382 40.74V41.23C126.362 41.23 126.342 41.23 126.322 41.23C126.302 41.2233 126.282 41.22 126.262 41.22C125.682 41.22 125.229 41.4033 124.902 41.77C124.576 42.13 124.412 42.6333 124.412 43.28V46H123.912ZM127.16 46V40.78H127.66V46H127.16ZM127.41 39.51C127.297 39.51 127.2 39.47 127.12 39.39C127.04 39.31 127 39.2167 127 39.11C127 38.9967 127.04 38.9 127.12 38.82C127.2 38.74 127.297 38.7 127.41 38.7C127.53 38.7 127.627 38.74 127.7 38.82C127.78 38.8933 127.82 38.9867 127.82 39.1C127.82 39.2133 127.78 39.31 127.7 39.39C127.627 39.47 127.53 39.51 127.41 39.51ZM128.307 47.98C128.101 47.98 127.901 47.95 127.707 47.89C127.514 47.8367 127.354 47.75 127.227 47.63L127.427 47.26C127.647 47.4533 127.931 47.55 128.277 47.55C128.577 47.55 128.807 47.46 128.967 47.28C129.134 47.1 129.217 46.84 129.217 46.5V40.78H129.717V46.52C129.717 46.96 129.594 47.3133 129.347 47.58C129.107 47.8467 128.761 47.98 128.307 47.98ZM129.467 39.51C129.354 39.51 129.257 39.47 129.177 39.39C129.097 39.31 129.057 39.2167 129.057 39.11C129.057 38.9967 129.097 38.9 129.177 38.82C129.257 38.74 129.354 38.7 129.467 38.7C129.587 38.7 129.684 38.74 129.757 38.82C129.837 38.8933 129.877 38.9867 129.877 39.1C129.877 39.2133 129.837 39.31 129.757 39.39C129.684 39.47 129.587 39.51 129.467 39.51ZM134.514 46V44.81L134.494 44.63V42.67C134.494 42.1833 134.36 41.8133 134.094 41.56C133.834 41.3067 133.45 41.18 132.944 41.18C132.584 41.18 132.247 41.2433 131.934 41.37C131.627 41.49 131.364 41.6467 131.144 41.84L130.894 41.48C131.154 41.2467 131.467 41.0667 131.834 40.94C132.2 40.8067 132.584 40.74 132.984 40.74C133.63 40.74 134.127 40.9033 134.474 41.23C134.82 41.5567 134.994 42.0433 134.994 42.69V46H134.514ZM132.634 46.04C132.247 46.04 131.91 45.98 131.624 45.86C131.344 45.7333 131.127 45.5567 130.974 45.33C130.827 45.1033 130.754 44.8433 130.754 44.55C130.754 44.2833 130.814 44.0433 130.934 43.83C131.06 43.61 131.267 43.4333 131.554 43.3C131.84 43.16 132.224 43.09 132.704 43.09H134.624V43.48H132.714C132.174 43.48 131.794 43.58 131.574 43.78C131.36 43.98 131.254 44.23 131.254 44.53C131.254 44.8633 131.38 45.13 131.634 45.33C131.887 45.53 132.244 45.63 132.704 45.63C133.144 45.63 133.514 45.53 133.814 45.33C134.12 45.13 134.347 44.84 134.494 44.46L134.634 44.8C134.494 45.18 134.254 45.4833 133.914 45.71C133.58 45.93 133.154 46.04 132.634 46.04ZM136.454 46V38.58H136.954V46H136.454ZM141.751 46V44.81L141.731 44.63V42.67C141.731 42.1833 141.598 41.8133 141.331 41.56C141.071 41.3067 140.688 41.18 140.181 41.18C139.821 41.18 139.485 41.2433 139.171 41.37C138.865 41.49 138.601 41.6467 138.381 41.84L138.131 41.48C138.391 41.2467 138.705 41.0667 139.071 40.94C139.438 40.8067 139.821 40.74 140.221 40.74C140.868 40.74 141.365 40.9033 141.711 41.23C142.058 41.5567 142.231 42.0433 142.231 42.69V46H141.751ZM139.871 46.04C139.485 46.04 139.148 45.98 138.861 45.86C138.581 45.7333 138.365 45.5567 138.211 45.33C138.065 45.1033 137.991 44.8433 137.991 44.55C137.991 44.2833 138.051 44.0433 138.171 43.83C138.298 43.61 138.505 43.4333 138.791 43.3C139.078 43.16 139.461 43.09 139.941 43.09H141.861V43.48H139.951C139.411 43.48 139.031 43.58 138.811 43.78C138.598 43.98 138.491 44.23 138.491 44.53C138.491 44.8633 138.618 45.13 138.871 45.33C139.125 45.53 139.481 45.63 139.941 45.63C140.381 45.63 140.751 45.53 141.051 45.33C141.358 45.13 141.585 44.84 141.731 44.46L141.871 44.8C141.731 45.18 141.491 45.4833 141.151 45.71C140.818 45.93 140.391 46.04 139.871 46.04Z" fill="black"/>
</svg>
