<svg width="25" height="26" viewBox="0 0 25 26" fill="none" xmlns="http://www.w3.org/2000/svg">
<path d="M23.0749 3.62769H1.92511C0.864979 3.62769 0 4.49267 0 5.55279V20.4473C0 21.5074 0.864979 22.3724 1.92511 22.3724H23.0749C24.135 22.3724 25 21.5074 25 20.4473V5.55279C25 4.49267 24.135 3.62769 23.0749 3.62769ZM22.7954 5.05174L12.6319 13.7437L2.46835 5.05174H22.7954ZM23.5759 20.4473C23.5759 20.7216 23.3492 20.9484 23.0749 20.9484H1.92511C1.65084 20.9484 1.42405 20.7216 1.42405 20.4473V6.03275L12.1677 15.2205C12.173 15.2258 12.1835 15.2311 12.1888 15.2363C12.1941 15.2416 12.2046 15.2469 12.2099 15.2522C12.2257 15.2627 12.2363 15.2733 12.2521 15.2785C12.2574 15.2838 12.2627 15.2838 12.2679 15.2891C12.289 15.2996 12.3101 15.3102 12.3312 15.3207C12.3365 15.3207 12.3418 15.326 12.347 15.326C12.3629 15.3313 12.3787 15.3418 12.3998 15.3471C12.4051 15.3471 12.4156 15.3524 12.4209 15.3524C12.4367 15.3576 12.4525 15.3629 12.4684 15.3629C12.4736 15.3629 12.4842 15.3682 12.4895 15.3682C12.5053 15.3735 12.5264 15.3735 12.5422 15.3787C12.5475 15.3787 12.5527 15.3787 12.558 15.3787C12.5791 15.3787 12.6055 15.384 12.6266 15.384C12.6477 15.384 12.6741 15.384 12.6951 15.3787C12.7004 15.3787 12.7057 15.3787 12.711 15.3787C12.7268 15.3787 12.7479 15.3735 12.7637 15.3682C12.769 15.3682 12.7795 15.3629 12.7848 15.3629C12.8006 15.3576 12.8165 15.3524 12.8323 15.3524C12.8376 15.3524 12.8481 15.3471 12.8534 15.3471C12.8692 15.3418 12.885 15.3366 12.9061 15.326C12.9114 15.326 12.9167 15.3207 12.9219 15.3207C12.943 15.3102 12.9641 15.2996 12.9852 15.2891C12.9905 15.2838 12.9958 15.2838 13.0011 15.2785C13.0169 15.268 13.0274 15.2627 13.0432 15.2522C13.0485 15.2469 13.0591 15.2416 13.0643 15.2363C13.0696 15.2311 13.0802 15.2258 13.0854 15.2205L23.5759 6.25954V20.4473Z" fill="white"/>
</svg>
